<svg width="24" height="23" viewBox="0 0 24 23" fill="none" xmlns="http://www.w3.org/2000/svg">
<path d="M11.5546 0C8.41644 0 8.02261 0.0136565 6.79006 0.0694794C5.55992 0.125542 4.72025 0.319365 3.98554 0.60375C3.22555 0.897479 2.58087 1.2904 1.9386 1.92984C1.29584 2.56905 0.901042 3.21066 0.604942 3.96678C0.318471 4.69823 0.123478 5.53414 0.0681101 6.75793C0.0132232 7.98459 -0.0012207 8.37679 -0.0012207 11.5C-0.0012207 14.6232 0.012742 15.014 0.0685917 16.2406C0.125164 17.4649 0.319916 18.3006 0.605423 19.0318C0.900801 19.7881 1.2956 20.4298 1.93811 21.069C2.58015 21.7086 3.22482 22.1025 3.98433 22.3962C4.71953 22.6806 5.55944 22.8745 6.78934 22.9305C8.02189 22.9863 8.41548 23 11.5534 23C14.6918 23 15.0845 22.9863 16.317 22.9305C17.5472 22.8745 18.3878 22.6806 19.123 22.3962C19.8827 22.1025 20.5265 21.7086 21.1685 21.069C21.8112 20.4298 22.206 19.7881 22.5021 19.032C22.7862 18.3006 22.9812 17.4647 23.039 16.2409C23.0943 15.0142 23.1088 14.6232 23.1088 11.5C23.1088 8.37679 23.0943 7.98483 23.039 6.75817C22.9812 5.5339 22.7862 4.69823 22.5021 3.96702C22.206 3.21066 21.8112 2.56905 21.1685 1.92984C20.5257 1.29016 19.883 0.89724 19.1223 0.60375C18.3856 0.319365 17.5455 0.125542 16.3153 0.0694794C15.0828 0.0136565 14.6904 0 11.5513 0H11.5546ZM10.518 2.0724C10.8257 2.07192 11.169 2.0724 11.5546 2.0724C14.6398 2.0724 15.0055 2.08342 16.2239 2.13852C17.3505 2.18979 17.9619 2.37715 18.3693 2.53455C18.9085 2.74299 19.2929 2.99216 19.6971 3.39466C20.1016 3.79716 20.3519 4.18049 20.5618 4.71716C20.72 5.12205 20.9085 5.73059 20.9598 6.85184C21.0151 8.06414 21.0272 8.4283 21.0272 11.4974C21.0272 14.5664 21.0151 14.9306 20.9598 16.1429C20.9083 17.2641 20.72 17.8727 20.5618 18.2776C20.3524 18.8142 20.1016 19.1964 19.6971 19.5986C19.2927 20.0011 18.9087 20.2503 18.3693 20.4587C17.9624 20.6169 17.3505 20.8037 16.2239 20.855C15.0058 20.9101 14.6398 20.9221 11.5546 20.9221C8.46916 20.9221 8.10349 20.9101 6.88539 20.855C5.75877 20.8033 5.14731 20.6159 4.73975 20.4585C4.20051 20.2501 3.81534 20.0009 3.41091 19.5984C3.00648 19.1959 2.75612 18.8135 2.5462 18.2766C2.38804 17.8717 2.19955 17.2632 2.14827 16.1419C2.0929 14.9296 2.08183 14.5655 2.08183 11.4945C2.08183 8.42351 2.0929 8.06126 2.14827 6.84897C2.19979 5.72772 2.38804 5.11918 2.5462 4.7138C2.75564 4.17713 3.00648 3.7938 3.41091 3.3913C3.81534 2.9888 4.20051 2.73964 4.73975 2.53072C5.14707 2.37259 5.75877 2.18572 6.88539 2.13421C7.95135 2.08629 8.36445 2.07192 10.518 2.06952V2.0724Z" fill="url(#paint0_radial_410_3403)"/>
<path d="M17.6978 3.95363C17.4235 3.95363 17.1554 4.03457 16.9274 4.18623C16.6994 4.33789 16.5216 4.55344 16.4167 4.80563C16.3118 5.05782 16.2843 5.33532 16.3379 5.60303C16.3914 5.87073 16.5235 6.11663 16.7175 6.3096C16.9115 6.50258 17.1586 6.63397 17.4276 6.68717C17.6966 6.74036 17.9754 6.71297 18.2288 6.60844C18.4821 6.50392 18.6987 6.32697 18.851 6.09996C19.0033 5.87296 19.0845 5.6061 19.0844 5.33315C19.0844 4.57127 18.4633 3.95315 17.6978 3.95315V3.95363Z" fill="url(#paint1_radial_410_3403)"/>
<path fill-rule="evenodd" clip-rule="evenodd" d="M11.5298 5.56602C8.25269 5.56602 5.59574 8.2103 5.59574 11.4718C5.59574 14.7332 8.25269 17.3763 11.5298 17.3763C14.8069 17.3763 17.4631 14.7332 17.4631 11.4718C17.4631 8.2103 14.8069 5.56602 11.5298 5.56602ZM11.5538 15.2735C13.6478 15.2735 15.3453 13.584 15.3453 11.5C15.3453 9.41601 13.6478 7.72658 11.5538 7.72658C9.45981 7.72658 7.7623 9.41601 7.7623 11.5C7.7623 13.584 9.45981 15.2735 11.5538 15.2735Z" fill="url(#paint2_radial_410_3403)"/>
<path d="M11.5546 0C8.41644 0 8.02261 0.0136565 6.79006 0.0694794C5.55992 0.125542 4.72025 0.319365 3.98554 0.60375C3.22555 0.897479 2.58087 1.2904 1.9386 1.92984C1.29584 2.56905 0.901042 3.21066 0.604942 3.96678C0.318471 4.69823 0.123478 5.53414 0.0681101 6.75793C0.0132232 7.98459 -0.0012207 8.37679 -0.0012207 11.5C-0.0012207 14.6232 0.012742 15.014 0.0685917 16.2406C0.125164 17.4649 0.319916 18.3006 0.605423 19.0318C0.900801 19.7881 1.2956 20.4298 1.93811 21.069C2.58015 21.7086 3.22482 22.1025 3.98433 22.3962C4.71953 22.6806 5.55944 22.8745 6.78934 22.9305C8.02189 22.9863 8.41548 23 11.5534 23C14.6918 23 15.0845 22.9863 16.317 22.9305C17.5472 22.8745 18.3878 22.6806 19.123 22.3962C19.8827 22.1025 20.5265 21.7086 21.1685 21.069C21.8112 20.4298 22.206 19.7881 22.5021 19.032C22.7862 18.3006 22.9812 17.4647 23.039 16.2409C23.0943 15.0142 23.1088 14.6232 23.1088 11.5C23.1088 8.37679 23.0943 7.98483 23.039 6.75817C22.9812 5.5339 22.7862 4.69823 22.5021 3.96702C22.206 3.21066 21.8112 2.56905 21.1685 1.92984C20.5257 1.29016 19.883 0.89724 19.1223 0.60375C18.3856 0.319365 17.5455 0.125542 16.3153 0.0694794C15.0828 0.0136565 14.6904 0 11.5513 0H11.5546ZM10.518 2.0724C10.8257 2.07192 11.169 2.0724 11.5546 2.0724C14.6398 2.0724 15.0055 2.08342 16.2239 2.13852C17.3505 2.18979 17.9619 2.37715 18.3693 2.53455C18.9085 2.74299 19.2929 2.99216 19.6971 3.39466C20.1016 3.79716 20.3519 4.18049 20.5618 4.71716C20.72 5.12205 20.9085 5.73059 20.9598 6.85184C21.0151 8.06414 21.0272 8.4283 21.0272 11.4974C21.0272 14.5664 21.0151 14.9306 20.9598 16.1429C20.9083 17.2641 20.72 17.8727 20.5618 18.2776C20.3524 18.8142 20.1016 19.1964 19.6971 19.5986C19.2927 20.0011 18.9087 20.2503 18.3693 20.4587C17.9624 20.6169 17.3505 20.8037 16.2239 20.855C15.0058 20.9101 14.6398 20.9221 11.5546 20.9221C8.46916 20.9221 8.10349 20.9101 6.88539 20.855C5.75877 20.8033 5.14731 20.6159 4.73975 20.4585C4.20051 20.2501 3.81534 20.0009 3.41091 19.5984C3.00648 19.1959 2.75612 18.8135 2.5462 18.2766C2.38804 17.8717 2.19955 17.2632 2.14827 16.1419C2.0929 14.9296 2.08183 14.5655 2.08183 11.4945C2.08183 8.42351 2.0929 8.06126 2.14827 6.84897C2.19979 5.72772 2.38804 5.11918 2.5462 4.7138C2.75564 4.17713 3.00648 3.7938 3.41091 3.3913C3.81534 2.9888 4.20051 2.73964 4.73975 2.53072C5.14707 2.37259 5.75877 2.18572 6.88539 2.13421C7.95135 2.08629 8.36445 2.07192 10.518 2.06952V2.0724Z" fill="white"/>
<path d="M17.6978 3.95363C17.4235 3.95363 17.1554 4.03457 16.9274 4.18623C16.6994 4.33789 16.5216 4.55344 16.4167 4.80563C16.3118 5.05782 16.2843 5.33532 16.3379 5.60303C16.3914 5.87073 16.5235 6.11663 16.7175 6.3096C16.9115 6.50258 17.1586 6.63397 17.4276 6.68717C17.6966 6.74036 17.9754 6.71297 18.2288 6.60844C18.4821 6.50392 18.6987 6.32697 18.851 6.09996C19.0033 5.87296 19.0845 5.6061 19.0844 5.33315C19.0844 4.57127 18.4633 3.95315 17.6978 3.95315V3.95363Z" fill="white"/>
<path fill-rule="evenodd" clip-rule="evenodd" d="M11.5298 5.56602C8.25269 5.56602 5.59574 8.2103 5.59574 11.4718C5.59574 14.7332 8.25269 17.3763 11.5298 17.3763C14.8069 17.3763 17.4631 14.7332 17.4631 11.4718C17.4631 8.2103 14.8069 5.56602 11.5298 5.56602ZM11.5538 15.2735C13.6478 15.2735 15.3453 13.584 15.3453 11.5C15.3453 9.41601 13.6478 7.72658 11.5538 7.72658C9.45981 7.72658 7.7623 9.41601 7.7623 11.5C7.7623 13.584 9.45981 15.2735 11.5538 15.2735Z" fill="white"/>
<defs>
<radialGradient id="paint0_radial_410_3403" cx="0" cy="0" r="1" gradientUnits="userSpaceOnUse" gradientTransform="translate(6.1374 24.7715) rotate(-90) scale(22.7947 21.3023)">
<stop stop-color="#FFDD55"/>
<stop offset="0.1" stop-color="#FFDD55"/>
<stop offset="0.5" stop-color="#FF543E"/>
<stop offset="1" stop-color="#C837AB"/>
</radialGradient>
<radialGradient id="paint1_radial_410_3403" cx="0" cy="0" r="1" gradientUnits="userSpaceOnUse" gradientTransform="translate(6.1374 24.7715) rotate(-90) scale(22.7947 21.3023)">
<stop stop-color="#FFDD55"/>
<stop offset="0.1" stop-color="#FFDD55"/>
<stop offset="0.5" stop-color="#FF543E"/>
<stop offset="1" stop-color="#C837AB"/>
</radialGradient>
<radialGradient id="paint2_radial_410_3403" cx="0" cy="0" r="1" gradientUnits="userSpaceOnUse" gradientTransform="translate(6.1374 24.7715) rotate(-90) scale(22.7947 21.3023)">
<stop stop-color="#FFDD55"/>
<stop offset="0.1" stop-color="#FFDD55"/>
<stop offset="0.5" stop-color="#FF543E"/>
<stop offset="1" stop-color="#C837AB"/>
</radialGradient>
</defs>
</svg>
