<svg width="128" height="128" viewBox="0 0 128 128" fill="none" xmlns="http://www.w3.org/2000/svg">
<g clip-path="url(#clip0_214_15602)">
<path d="M71.0006 74.3796C70.1861 69.8645 72.1069 65.2932 75.9018 62.7149L99.5441 46.6519C99.5441 46.6519 118.11 78.0769 108.192 94.0806C100.996 105.693 77.6226 111.09 77.6226 111.09L71.0006 74.3796Z" fill="#F7EC61"/>
<path d="M25.3074 45.4309C25.3074 45.4309 9.01051 78.1112 19.5461 94.0806C26.905 105.235 49.2375 111.09 49.2375 111.09L55.1372 74.1589C55.8407 69.7548 53.9594 65.337 50.2966 62.7923L25.3074 45.4309Z" fill="#FA6950"/>
<path d="M62.7271 16L38.5655 33.9721C36.599 35.4348 36.7181 38.4172 38.795 39.7185L62.7271 54.7129L86.8659 39.7253C88.9587 38.4259 89.0782 35.424 87.0953 33.9624L62.7271 16Z" fill="#2587D4"/>
</g>
<defs>
<clipPath id="clip0_214_15602">
<rect width="128" height="128" fill="white"/>
</clipPath>
</defs>
</svg>
