<svg width="101" height="100" viewBox="0 0 101 100" fill="none" xmlns="http://www.w3.org/2000/svg">
<path d="M50.5031 7C38.8249 7 37.3593 7.05082 32.7726 7.25856C28.1949 7.46718 25.0702 8.18846 22.3361 9.24676C19.5079 10.3398 17.1088 11.802 14.7187 14.1816C12.3268 16.5603 10.8576 18.9479 9.75573 21.7617C8.68968 24.4837 7.96405 27.5944 7.758 32.1485C7.55375 36.7133 7.5 38.1728 7.5 49.7953C7.5 61.4178 7.55196 62.872 7.7598 67.4368C7.97032 71.9927 8.69505 75.1025 9.75752 77.8236C10.8567 80.6383 12.3259 83.0259 14.7169 85.4046C17.1061 87.7851 19.5052 89.2508 22.3316 90.3439C25.0675 91.4022 28.1931 92.1235 32.7699 92.3321C37.3566 92.5398 38.8214 92.5907 50.4987 92.5907C62.1778 92.5907 63.6389 92.5398 68.2256 92.3321C72.8034 92.1235 75.9316 91.4022 78.6675 90.3439C81.4948 89.2508 83.8903 87.7851 86.2795 85.4046C88.6714 83.0259 90.1406 80.6383 91.2425 77.8245C92.2996 75.1025 93.0252 71.9918 93.2402 67.4377C93.4463 62.8729 93.5 61.4178 93.5 49.7953C93.5 38.1728 93.4463 36.7142 93.2402 32.1494C93.0252 27.5935 92.2996 24.4837 91.2425 21.7626C90.1406 18.9479 88.6714 16.5603 86.2795 14.1816C83.8876 11.8011 81.4957 10.3389 78.6649 9.24676C75.9236 8.18846 72.7971 7.46718 68.2193 7.25856C63.6326 7.05082 62.1724 7 50.4906 7H50.5031ZM46.6456 14.7121C47.7905 14.7103 49.068 14.7121 50.5031 14.7121C61.9843 14.7121 63.345 14.7531 67.8789 14.9581C72.0714 15.1489 74.3469 15.8462 75.8627 16.4319C77.8693 17.2076 79.3 18.1348 80.8041 19.6326C82.3091 21.1305 83.2408 22.557 84.022 24.5541C84.6106 26.0609 85.312 28.3254 85.5028 32.498C85.7089 37.0093 85.7537 38.3645 85.7537 49.7855C85.7537 61.2065 85.7089 62.5617 85.5028 67.073C85.3111 71.2456 84.6106 73.5102 84.022 75.0169C83.2426 77.014 82.3091 78.4361 80.8041 79.9331C79.2991 81.4309 77.8702 82.3581 75.8627 83.1338C74.3487 83.7222 72.0714 84.4176 67.8789 84.6084C63.3459 84.8135 61.9843 84.8581 50.5031 84.8581C39.0211 84.8581 37.6603 84.8135 33.1274 84.6084C28.9348 84.4158 26.6594 83.7186 25.1427 83.1329C23.136 82.3572 21.7027 81.43 20.1977 79.9322C18.6927 78.4343 17.761 77.0114 16.9798 75.0134C16.3912 73.5066 15.6898 71.242 15.499 67.0695C15.2929 62.5581 15.2517 61.203 15.2517 49.7748C15.2517 38.3467 15.2929 36.9986 15.499 32.4873C15.6907 28.3148 16.3912 26.0502 16.9798 24.5416C17.7592 22.5445 18.6927 21.118 20.1977 19.6202C21.7027 18.1223 23.136 17.1951 25.1427 16.4176C26.6585 15.8292 28.9348 15.1338 33.1274 14.9421C37.0942 14.7638 38.6314 14.7103 46.6456 14.7014V14.7121Z" fill="url(#paint0_radial_234_7299)"/>
<path d="M73.3639 21.7128C72.3433 21.7128 71.3456 22.014 70.497 22.5784C69.6484 23.1427 68.987 23.9449 68.5965 24.8834C68.206 25.8218 68.1039 26.8545 68.3032 27.8507C68.5024 28.847 68.994 29.762 69.7159 30.4801C70.4377 31.1983 71.3573 31.6872 72.3584 31.8852C73.3594 32.0831 74.397 31.9812 75.3399 31.5922C76.2827 31.2033 77.0885 30.5448 77.6553 29.7C78.222 28.8552 78.5244 27.8622 78.524 26.8464C78.524 24.0112 76.2127 21.711 73.3639 21.711V21.7128Z" fill="url(#paint1_radial_234_7299)"/>
<path fill-rule="evenodd" clip-rule="evenodd" d="M50.4107 27.713C38.2156 27.713 28.3281 37.5533 28.3281 49.6902C28.3281 61.8271 38.2156 71.6629 50.4107 71.6629C62.6058 71.6629 72.4905 61.8271 72.4905 49.6902C72.4905 37.5533 62.6058 27.713 50.4107 27.713ZM50.5 63.8376C58.2924 63.8376 64.6094 57.5507 64.6094 49.7954C64.6094 42.0401 58.2924 35.7532 50.5 35.7532C42.7076 35.7532 36.3906 42.0401 36.3906 49.7954C36.3906 57.5507 42.7076 63.8376 50.5 63.8376Z" fill="url(#paint2_radial_234_7299)"/>
<path d="M50.5031 7C38.8249 7 37.3593 7.05082 32.7726 7.25856C28.1949 7.46718 25.0702 8.18846 22.3361 9.24676C19.5079 10.3398 17.1088 11.802 14.7187 14.1816C12.3268 16.5603 10.8576 18.9479 9.75573 21.7617C8.68968 24.4837 7.96405 27.5944 7.758 32.1485C7.55375 36.7133 7.5 38.1728 7.5 49.7953C7.5 61.4178 7.55196 62.872 7.7598 67.4368C7.97032 71.9927 8.69505 75.1025 9.75752 77.8236C10.8567 80.6383 12.3259 83.0259 14.7169 85.4046C17.1061 87.7851 19.5052 89.2508 22.3316 90.3439C25.0675 91.4022 28.1931 92.1235 32.7699 92.3321C37.3566 92.5398 38.8214 92.5907 50.4987 92.5907C62.1778 92.5907 63.6389 92.5398 68.2256 92.3321C72.8034 92.1235 75.9316 91.4022 78.6675 90.3439C81.4948 89.2508 83.8903 87.7851 86.2795 85.4046C88.6714 83.0259 90.1406 80.6383 91.2425 77.8245C92.2996 75.1025 93.0252 71.9918 93.2402 67.4377C93.4463 62.8729 93.5 61.4178 93.5 49.7953C93.5 38.1728 93.4463 36.7142 93.2402 32.1494C93.0252 27.5935 92.2996 24.4837 91.2425 21.7626C90.1406 18.9479 88.6714 16.5603 86.2795 14.1816C83.8876 11.8011 81.4957 10.3389 78.6649 9.24676C75.9236 8.18846 72.7971 7.46718 68.2193 7.25856C63.6326 7.05082 62.1724 7 50.4906 7H50.5031ZM46.6456 14.7121C47.7905 14.7103 49.068 14.7121 50.5031 14.7121C61.9843 14.7121 63.345 14.7531 67.8789 14.9581C72.0714 15.1489 74.3469 15.8462 75.8627 16.4319C77.8693 17.2076 79.3 18.1348 80.8041 19.6326C82.3091 21.1305 83.2408 22.557 84.022 24.5541C84.6106 26.0609 85.312 28.3254 85.5028 32.498C85.7089 37.0093 85.7537 38.3645 85.7537 49.7855C85.7537 61.2065 85.7089 62.5617 85.5028 67.073C85.3111 71.2456 84.6106 73.5102 84.022 75.0169C83.2426 77.014 82.3091 78.4361 80.8041 79.9331C79.2991 81.4309 77.8702 82.3581 75.8627 83.1338C74.3487 83.7222 72.0714 84.4176 67.8789 84.6084C63.3459 84.8135 61.9843 84.8581 50.5031 84.8581C39.0211 84.8581 37.6603 84.8135 33.1274 84.6084C28.9348 84.4158 26.6594 83.7186 25.1427 83.1329C23.136 82.3572 21.7027 81.43 20.1977 79.9322C18.6927 78.4343 17.761 77.0114 16.9798 75.0134C16.3912 73.5066 15.6898 71.242 15.499 67.0695C15.2929 62.5581 15.2517 61.203 15.2517 49.7748C15.2517 38.3467 15.2929 36.9986 15.499 32.4873C15.6907 28.3148 16.3912 26.0502 16.9798 24.5416C17.7592 22.5445 18.6927 21.118 20.1977 19.6202C21.7027 18.1223 23.136 17.1951 25.1427 16.4176C26.6585 15.8292 28.9348 15.1338 33.1274 14.9421C37.0942 14.7638 38.6314 14.7103 46.6456 14.7014V14.7121Z" fill="url(#paint3_radial_234_7299)"/>
<path d="M73.3639 21.7128C72.3433 21.7128 71.3456 22.014 70.497 22.5784C69.6484 23.1427 68.987 23.9449 68.5965 24.8834C68.206 25.8218 68.1039 26.8545 68.3032 27.8507C68.5024 28.847 68.994 29.762 69.7159 30.4801C70.4377 31.1983 71.3573 31.6872 72.3584 31.8852C73.3594 32.0831 74.397 31.9812 75.3399 31.5922C76.2827 31.2033 77.0885 30.5448 77.6553 29.7C78.222 28.8552 78.5244 27.8622 78.524 26.8464C78.524 24.0112 76.2127 21.711 73.3639 21.711V21.7128Z" fill="url(#paint4_radial_234_7299)"/>
<path fill-rule="evenodd" clip-rule="evenodd" d="M50.4107 27.713C38.2156 27.713 28.3281 37.5533 28.3281 49.6902C28.3281 61.8271 38.2156 71.6629 50.4107 71.6629C62.6058 71.6629 72.4905 61.8271 72.4905 49.6902C72.4905 37.5533 62.6058 27.713 50.4107 27.713ZM50.5 63.8376C58.2924 63.8376 64.6094 57.5507 64.6094 49.7954C64.6094 42.0401 58.2924 35.7532 50.5 35.7532C42.7076 35.7532 36.3906 42.0401 36.3906 49.7954C36.3906 57.5507 42.7076 63.8376 50.5 63.8376Z" fill="url(#paint5_radial_234_7299)"/>
<defs>
<radialGradient id="paint0_radial_234_7299" cx="0" cy="0" r="1" gradientUnits="userSpaceOnUse" gradientTransform="translate(30.3439 99.1829) rotate(-90) scale(84.8267 79.2728)">
<stop stop-color="#FFDD55"/>
<stop offset="0.1" stop-color="#FFDD55"/>
<stop offset="0.5" stop-color="#FF543E"/>
<stop offset="1" stop-color="#C837AB"/>
</radialGradient>
<radialGradient id="paint1_radial_234_7299" cx="0" cy="0" r="1" gradientUnits="userSpaceOnUse" gradientTransform="translate(30.3439 99.1829) rotate(-90) scale(84.8267 79.2728)">
<stop stop-color="#FFDD55"/>
<stop offset="0.1" stop-color="#FFDD55"/>
<stop offset="0.5" stop-color="#FF543E"/>
<stop offset="1" stop-color="#C837AB"/>
</radialGradient>
<radialGradient id="paint2_radial_234_7299" cx="0" cy="0" r="1" gradientUnits="userSpaceOnUse" gradientTransform="translate(30.3439 99.1829) rotate(-90) scale(84.8267 79.2728)">
<stop stop-color="#FFDD55"/>
<stop offset="0.1" stop-color="#FFDD55"/>
<stop offset="0.5" stop-color="#FF543E"/>
<stop offset="1" stop-color="#C837AB"/>
</radialGradient>
<radialGradient id="paint3_radial_234_7299" cx="0" cy="0" r="1" gradientUnits="userSpaceOnUse" gradientTransform="translate(-6.90545 13.1658) rotate(78.6279) scale(37.9249 157.018)">
<stop stop-color="#3771C8"/>
<stop offset="0.128" stop-color="#3771C8"/>
<stop offset="1" stop-color="#6600FF" stop-opacity="0"/>
</radialGradient>
<radialGradient id="paint4_radial_234_7299" cx="0" cy="0" r="1" gradientUnits="userSpaceOnUse" gradientTransform="translate(-6.90545 13.1658) rotate(78.6279) scale(37.9249 157.018)">
<stop stop-color="#3771C8"/>
<stop offset="0.128" stop-color="#3771C8"/>
<stop offset="1" stop-color="#6600FF" stop-opacity="0"/>
</radialGradient>
<radialGradient id="paint5_radial_234_7299" cx="0" cy="0" r="1" gradientUnits="userSpaceOnUse" gradientTransform="translate(-6.90545 13.1658) rotate(78.6279) scale(37.9249 157.018)">
<stop stop-color="#3771C8"/>
<stop offset="0.128" stop-color="#3771C8"/>
<stop offset="1" stop-color="#6600FF" stop-opacity="0"/>
</radialGradient>
</defs>
</svg>
