<?xml version="1.0" encoding="UTF-8"?>
<svg height="600" width="800" xmlns="http://www.w3.org/2000/svg" xmlns:xlink="http://www.w3.org/1999/xlink">
    <g id="Notes" font-family="'LucidaGrande', 'Lucida Grande', sans-serif" font-size="13">
        <rect fill="white" height="600.0" width="800.0" x="0.0" y="0.0" />
        <g font-size="13">
            <text x="18.0" y="176.0">Small</text>
            <text x="18.0" y="376.0">Medium</text>
            <text x="18.0" y="576.0">Large</text>
        </g>
        <g font-size="9">
            <text x="250.0" y="30.0">Ultralight</text>
            <text x="450.0" y="30.0">Regular</text>
            <text x="650.0" y="30.0">Black</text>
            <text id="template-version" fill="#505050" text-anchor="end" x="785.0" y="575.0">Template v.3.0</text>
            <a href="https://wangchujiang.com/#/app">
                <text fill="#505050" text-anchor="end" x="785.0" y="590.0">https://wangchujiang.com/#/app</text>
            </a>
        </g>
    </g>
    <g id="Guides" stroke="rgb(39, 170, 225)" stroke-width="0.5">
        <path id="Capline-S" d="M18,76 l800,0" />
        <path id="H-reference" d="M85,145.755 L87.685,145.755 L113.369,79.287 L114.052,79.287 L114.052,76 L112.148,76 L85,145.755 Z M95.693,121.536 L130.996,121.536 L130.263,119.313 L96.474,119.313 L95.693,121.536 Z M139.15,145.755 L141.787,145.755 L114.638,76 L113.466,76 L113.466,79.287 L139.15,145.755 Z" stroke="none" />
        <path id="Baseline-S" d="M18,146 l800,0" />
        <path id="left-margin-Ultralight-S" d="M219.993,56 l0,110" />
        <path id="right-margin-Ultralight-S" d="M310.007,56 l0,110" />
        <path id="left-margin-Regular-S" d="M419.993,56 l0,110" />
        <path id="right-margin-Regular-S" d="M510.007,56 l0,110" />
        <path id="left-margin-Black-S" d="M619.993,56 l0,110" />
        <path id="right-margin-Black-S" d="M710.007,56 l0,110" />
        <path id="Capline-M" d="M18,276 l800,0" />
        <path id="Baseline-M" d="M18,346 l800,0" />
        <path id="Capline-L" d="M18,476 l800,0" />
        <path id="Baseline-L" d="M18,546 l800,0" />
    </g>
    <g id="Symbols">
        <g id="Ultralight-S">
            <path d="M270.482,118.976 C269.882,115.652 271.296,112.287 274.09,110.389 L291.494,98.564 C291.494,98.564 305.161,121.698 297.86,133.479 C292.563,142.027 275.357,146 275.357,146 L270.482,118.976 Z" />
            <path d="M236.845,97.665 C236.845,97.665 224.848,121.723 232.604,133.479 C238.021,141.69 254.461,146 254.461,146 L258.804,118.813 C259.322,115.571 257.937,112.319 255.241,110.446 L236.845,97.665 Z" />
            <path d="M264.391,76 L246.605,89.23 C245.157,90.307 245.245,92.502 246.774,93.46 L264.391,104.498 L282.161,93.465 C283.702,92.509 283.79,90.299 282.33,89.223 L264.391,76 Z" />
        </g>
        <g id="Regular-S">
            <path d="M470.482,118.976 C469.882,115.652 471.296,112.287 474.09,110.389 L491.494,98.564 C491.494,98.564 505.161,121.698 497.86,133.479 C492.563,142.027 475.357,146 475.357,146 L470.482,118.976 Z" />
            <path d="M436.845,97.665 C436.845,97.665 424.848,121.723 432.604,133.479 C438.021,141.69 454.461,146 454.461,146 L458.804,118.813 C459.322,115.571 457.937,112.319 455.241,110.446 L436.845,97.665 Z" />
            <path d="M464.391,76 L446.605,89.23 C445.157,90.307 445.245,92.502 446.774,93.46 L464.391,104.498 L482.161,93.465 C483.702,92.509 483.79,90.299 482.33,89.223 L464.391,76 Z" />
        </g>
        <g id="Black-S">
            <path d="M670.482,118.976 C669.882,115.652 671.296,112.287 674.09,110.389 L691.494,98.564 C691.494,98.564 705.161,121.698 697.86,133.479 C692.563,142.027 675.357,146 675.357,146 L670.482,118.976 Z" />
            <path d="M636.845,97.665 C636.845,97.665 624.848,121.723 632.604,133.479 C638.021,141.69 654.461,146 654.461,146 L658.804,118.813 C659.322,115.571 657.937,112.319 655.241,110.446 L636.845,97.665 Z" />
            <path d="M664.391,76 L646.605,89.23 C645.157,90.307 645.245,92.502 646.774,93.46 L664.391,104.498 L682.161,93.465 C683.702,92.509 683.79,90.299 682.33,89.223 L664.391,76 Z" />
        </g>
    </g>
</svg>