<svg width="24" height="23" viewBox="0 0 24 23" fill="none" xmlns="http://www.w3.org/2000/svg">
<path d="M12.0546 0C8.91644 0 8.52261 0.0136565 7.29006 0.0694794C6.05992 0.125542 5.22025 0.319365 4.48554 0.60375C3.72555 0.897479 3.08087 1.2904 2.4386 1.92984C1.79584 2.56905 1.40104 3.21066 1.10494 3.96678C0.818471 4.69823 0.623478 5.53414 0.56811 6.75793C0.513223 7.98459 0.498779 8.37679 0.498779 11.5C0.498779 14.6232 0.512742 15.014 0.568592 16.2406C0.625164 17.4649 0.819916 18.3006 1.10542 19.0318C1.4008 19.7881 1.7956 20.4298 2.43811 21.069C3.08015 21.7086 3.72482 22.1025 4.48433 22.3962C5.21953 22.6806 6.05944 22.8745 7.28934 22.9305C8.52189 22.9863 8.91548 23 12.0534 23C15.1918 23 15.5845 22.9863 16.817 22.9305C18.0472 22.8745 18.8878 22.6806 19.623 22.3962C20.3827 22.1025 21.0265 21.7086 21.6685 21.069C22.3112 20.4298 22.706 19.7881 23.0021 19.032C23.2862 18.3006 23.4812 17.4647 23.539 16.2409C23.5943 15.0142 23.6088 14.6232 23.6088 11.5C23.6088 8.37679 23.5943 7.98483 23.539 6.75817C23.4812 5.5339 23.2862 4.69823 23.0021 3.96702C22.706 3.21066 22.3112 2.56905 21.6685 1.92984C21.0257 1.29016 20.383 0.89724 19.6223 0.60375C18.8856 0.319365 18.0455 0.125542 16.8153 0.0694794C15.5828 0.0136565 15.1904 0 12.0513 0H12.0546ZM11.018 2.0724C11.3257 2.07192 11.669 2.0724 12.0546 2.0724C15.1398 2.0724 15.5055 2.08342 16.7239 2.13852C17.8505 2.18979 18.4619 2.37715 18.8693 2.53455C19.4085 2.74299 19.7929 2.99216 20.1971 3.39466C20.6016 3.79716 20.8519 4.18049 21.0618 4.71716C21.22 5.12205 21.4085 5.73059 21.4598 6.85184C21.5151 8.06414 21.5272 8.4283 21.5272 11.4974C21.5272 14.5664 21.5151 14.9306 21.4598 16.1429C21.4083 17.2641 21.22 17.8727 21.0618 18.2776C20.8524 18.8142 20.6016 19.1964 20.1971 19.5986C19.7927 20.0011 19.4087 20.2503 18.8693 20.4587C18.4624 20.6169 17.8505 20.8037 16.7239 20.855C15.5058 20.9101 15.1398 20.9221 12.0546 20.9221C8.96916 20.9221 8.60349 20.9101 7.38539 20.855C6.25877 20.8033 5.64731 20.6159 5.23975 20.4585C4.70051 20.2501 4.31534 20.0009 3.91091 19.5984C3.50648 19.1959 3.25612 18.8135 3.0462 18.2766C2.88804 17.8717 2.69955 17.2632 2.64827 16.1419C2.5929 14.9296 2.58183 14.5655 2.58183 11.4945C2.58183 8.42351 2.5929 8.06126 2.64827 6.84897C2.69979 5.72772 2.88804 5.11918 3.0462 4.7138C3.25564 4.17713 3.50648 3.7938 3.91091 3.3913C4.31534 2.9888 4.70051 2.73964 5.23975 2.53072C5.64707 2.37259 6.25877 2.18572 7.38539 2.13421C8.45135 2.08629 8.86445 2.07192 11.018 2.06952V2.0724Z" fill="url(#paint0_radial_410_4058)"/>
<path d="M18.1978 3.95363C17.9235 3.95363 17.6554 4.03457 17.4274 4.18623C17.1994 4.33789 17.0216 4.55344 16.9167 4.80563C16.8118 5.05782 16.7843 5.33532 16.8379 5.60303C16.8914 5.87073 17.0235 6.11663 17.2175 6.3096C17.4115 6.50258 17.6586 6.63397 17.9276 6.68717C18.1966 6.74036 18.4754 6.71297 18.7288 6.60844C18.9821 6.50392 19.1987 6.32697 19.351 6.09996C19.5033 5.87296 19.5845 5.6061 19.5844 5.33315C19.5844 4.57127 18.9633 3.95315 18.1978 3.95315V3.95363Z" fill="url(#paint1_radial_410_4058)"/>
<path fill-rule="evenodd" clip-rule="evenodd" d="M12.0298 5.56602C8.75269 5.56602 6.09574 8.2103 6.09574 11.4718C6.09574 14.7332 8.75269 17.3763 12.0298 17.3763C15.3069 17.3763 17.9631 14.7332 17.9631 11.4718C17.9631 8.2103 15.3069 5.56602 12.0298 5.56602ZM12.0538 15.2735C14.1478 15.2735 15.8453 13.584 15.8453 11.5C15.8453 9.41601 14.1478 7.72658 12.0538 7.72658C9.95981 7.72658 8.2623 9.41601 8.2623 11.5C8.2623 13.584 9.95981 15.2735 12.0538 15.2735Z" fill="url(#paint2_radial_410_4058)"/>
<path d="M12.0546 0C8.91644 0 8.52261 0.0136565 7.29006 0.0694794C6.05992 0.125542 5.22025 0.319365 4.48554 0.60375C3.72555 0.897479 3.08087 1.2904 2.4386 1.92984C1.79584 2.56905 1.40104 3.21066 1.10494 3.96678C0.818471 4.69823 0.623478 5.53414 0.56811 6.75793C0.513223 7.98459 0.498779 8.37679 0.498779 11.5C0.498779 14.6232 0.512742 15.014 0.568592 16.2406C0.625164 17.4649 0.819916 18.3006 1.10542 19.0318C1.4008 19.7881 1.7956 20.4298 2.43811 21.069C3.08015 21.7086 3.72482 22.1025 4.48433 22.3962C5.21953 22.6806 6.05944 22.8745 7.28934 22.9305C8.52189 22.9863 8.91548 23 12.0534 23C15.1918 23 15.5845 22.9863 16.817 22.9305C18.0472 22.8745 18.8878 22.6806 19.623 22.3962C20.3827 22.1025 21.0265 21.7086 21.6685 21.069C22.3112 20.4298 22.706 19.7881 23.0021 19.032C23.2862 18.3006 23.4812 17.4647 23.539 16.2409C23.5943 15.0142 23.6088 14.6232 23.6088 11.5C23.6088 8.37679 23.5943 7.98483 23.539 6.75817C23.4812 5.5339 23.2862 4.69823 23.0021 3.96702C22.706 3.21066 22.3112 2.56905 21.6685 1.92984C21.0257 1.29016 20.383 0.89724 19.6223 0.60375C18.8856 0.319365 18.0455 0.125542 16.8153 0.0694794C15.5828 0.0136565 15.1904 0 12.0513 0H12.0546ZM11.018 2.0724C11.3257 2.07192 11.669 2.0724 12.0546 2.0724C15.1398 2.0724 15.5055 2.08342 16.7239 2.13852C17.8505 2.18979 18.4619 2.37715 18.8693 2.53455C19.4085 2.74299 19.7929 2.99216 20.1971 3.39466C20.6016 3.79716 20.8519 4.18049 21.0618 4.71716C21.22 5.12205 21.4085 5.73059 21.4598 6.85184C21.5151 8.06414 21.5272 8.4283 21.5272 11.4974C21.5272 14.5664 21.5151 14.9306 21.4598 16.1429C21.4083 17.2641 21.22 17.8727 21.0618 18.2776C20.8524 18.8142 20.6016 19.1964 20.1971 19.5986C19.7927 20.0011 19.4087 20.2503 18.8693 20.4587C18.4624 20.6169 17.8505 20.8037 16.7239 20.855C15.5058 20.9101 15.1398 20.9221 12.0546 20.9221C8.96916 20.9221 8.60349 20.9101 7.38539 20.855C6.25877 20.8033 5.64731 20.6159 5.23975 20.4585C4.70051 20.2501 4.31534 20.0009 3.91091 19.5984C3.50648 19.1959 3.25612 18.8135 3.0462 18.2766C2.88804 17.8717 2.69955 17.2632 2.64827 16.1419C2.5929 14.9296 2.58183 14.5655 2.58183 11.4945C2.58183 8.42351 2.5929 8.06126 2.64827 6.84897C2.69979 5.72772 2.88804 5.11918 3.0462 4.7138C3.25564 4.17713 3.50648 3.7938 3.91091 3.3913C4.31534 2.9888 4.70051 2.73964 5.23975 2.53072C5.64707 2.37259 6.25877 2.18572 7.38539 2.13421C8.45135 2.08629 8.86445 2.07192 11.018 2.06952V2.0724Z" fill="url(#paint3_radial_410_4058)"/>
<path d="M18.1978 3.95363C17.9235 3.95363 17.6554 4.03457 17.4274 4.18623C17.1994 4.33789 17.0216 4.55344 16.9167 4.80563C16.8118 5.05782 16.7843 5.33532 16.8379 5.60303C16.8914 5.87073 17.0235 6.11663 17.2175 6.3096C17.4115 6.50258 17.6586 6.63397 17.9276 6.68717C18.1966 6.74036 18.4754 6.71297 18.7288 6.60844C18.9821 6.50392 19.1987 6.32697 19.351 6.09996C19.5033 5.87296 19.5845 5.6061 19.5844 5.33315C19.5844 4.57127 18.9633 3.95315 18.1978 3.95315V3.95363Z" fill="url(#paint4_radial_410_4058)"/>
<path fill-rule="evenodd" clip-rule="evenodd" d="M12.0298 5.56602C8.75269 5.56602 6.09574 8.2103 6.09574 11.4718C6.09574 14.7332 8.75269 17.3763 12.0298 17.3763C15.3069 17.3763 17.9631 14.7332 17.9631 11.4718C17.9631 8.2103 15.3069 5.56602 12.0298 5.56602ZM12.0538 15.2735C14.1478 15.2735 15.8453 13.584 15.8453 11.5C15.8453 9.41601 14.1478 7.72658 12.0538 7.72658C9.95981 7.72658 8.2623 9.41601 8.2623 11.5C8.2623 13.584 9.95981 15.2735 12.0538 15.2735Z" fill="url(#paint5_radial_410_4058)"/>
<defs>
<radialGradient id="paint0_radial_410_4058" cx="0" cy="0" r="1" gradientUnits="userSpaceOnUse" gradientTransform="translate(6.6374 24.7715) rotate(-90) scale(22.7947 21.3023)">
<stop stop-color="#FFDD55"/>
<stop offset="0.1" stop-color="#FFDD55"/>
<stop offset="0.5" stop-color="#FF543E"/>
<stop offset="1" stop-color="#C837AB"/>
</radialGradient>
<radialGradient id="paint1_radial_410_4058" cx="0" cy="0" r="1" gradientUnits="userSpaceOnUse" gradientTransform="translate(6.6374 24.7715) rotate(-90) scale(22.7947 21.3023)">
<stop stop-color="#FFDD55"/>
<stop offset="0.1" stop-color="#FFDD55"/>
<stop offset="0.5" stop-color="#FF543E"/>
<stop offset="1" stop-color="#C837AB"/>
</radialGradient>
<radialGradient id="paint2_radial_410_4058" cx="0" cy="0" r="1" gradientUnits="userSpaceOnUse" gradientTransform="translate(6.6374 24.7715) rotate(-90) scale(22.7947 21.3023)">
<stop stop-color="#FFDD55"/>
<stop offset="0.1" stop-color="#FFDD55"/>
<stop offset="0.5" stop-color="#FF543E"/>
<stop offset="1" stop-color="#C837AB"/>
</radialGradient>
<radialGradient id="paint3_radial_410_4058" cx="0" cy="0" r="1" gradientUnits="userSpaceOnUse" gradientTransform="translate(-3.37227 1.65688) rotate(78.6279) scale(10.1912 42.1939)">
<stop stop-color="#3771C8"/>
<stop offset="0.128" stop-color="#3771C8"/>
<stop offset="1" stop-color="#6600FF" stop-opacity="0"/>
</radialGradient>
<radialGradient id="paint4_radial_410_4058" cx="0" cy="0" r="1" gradientUnits="userSpaceOnUse" gradientTransform="translate(-3.37227 1.65688) rotate(78.6279) scale(10.1912 42.1939)">
<stop stop-color="#3771C8"/>
<stop offset="0.128" stop-color="#3771C8"/>
<stop offset="1" stop-color="#6600FF" stop-opacity="0"/>
</radialGradient>
<radialGradient id="paint5_radial_410_4058" cx="0" cy="0" r="1" gradientUnits="userSpaceOnUse" gradientTransform="translate(-3.37227 1.65688) rotate(78.6279) scale(10.1912 42.1939)">
<stop stop-color="#3771C8"/>
<stop offset="0.128" stop-color="#3771C8"/>
<stop offset="1" stop-color="#6600FF" stop-opacity="0"/>
</radialGradient>
</defs>
</svg>
